<?xml version="1.0" encoding="iso-8859-1"?>
<!-- Generator: Adobe Illustrator 19.0.0, SVG Export Plug-In . SVG Version: 6.00 Build 0)  -->
<svg version="1.1" id="Capa_1" xmlns="http://www.w3.org/2000/svg" xmlns:xlink="http://www.w3.org/1999/xlink" x="0px" y="0px"
	 viewBox="0 0 490.1 490.1" style="enable-background:new 0 0 490.1 490.1;" xml:space="preserve">
<g>
	<g>
		<g>
			<path d="M449.3,49H40.7C17.7,49,0,67.8,0,89.7v310.7c0,22.9,18.8,40.7,40.7,40.7h408.7c22.9,0,40.7-18.8,40.7-41.7V89.7
				C490,66.7,471.2,49,449.3,49z M449.3,399.3L449.3,399.3H40.7V89.7h408.7v309.6H449.3z"/>
			<path d="M245,378.4c74,0,133.4-59.4,133.4-133.4S319,111.6,245,111.6S111.6,171,111.6,245S171,378.4,245,378.4z M245,152.2
				c51.1,0,92.8,41.7,92.8,92.8s-41.7,92.8-92.8,92.8s-92.8-41.7-92.8-92.8S193.9,152.2,245,152.2z"/>
		</g>
		<path d="M276.8,182.9c-6.7-2.6-13.7-3.9-20.8-3.9c-25.5,0-47.4,16.9-56.6,40.9h-15.6c-5.1,0-9.2,4.1-9.2,9.2
			c0,5.1,4.1,9.2,9.2,9.2h11.3c-0.2,2.2-0.2,11.2,0,13.4h-11.3c-5.1,0-9.2,4.1-9.2,9.2s4.1,9.2,9.2,9.2h15.6
			c9.2,24,31.1,40.9,56.6,40.9c5.8,0,11.6-0.9,17.2-2.6c4.8-1.5,7.5-6.7,6-11.5s-6.7-7.5-11.5-6c-3.8,1.2-7.7,1.8-11.7,1.8
			c-15.4,0-28.9-9.1-36.4-22.6h38.8c5.1,0,9.2-4.1,9.2-9.2s-4.1-9.2-9.2-9.2h-44.8c-0.3-2.2-0.3-11.2,0-13.4h44.8
			c5.1,0,9.2-4.1,9.2-9.2c0-5.1-4.1-9.2-9.2-9.2h-38.8c7.6-13.6,21.1-22.6,36.4-22.6c4.9,0,9.6,0.9,14.2,2.7
			c4.7,1.8,10-0.5,11.9-5.2C283.9,190.1,281.5,184.8,276.8,182.9z"/>
	</g>
</g>
<g>
</g>
<g>
</g>
<g>
</g>
<g>
</g>
<g>
</g>
<g>
</g>
<g>
</g>
<g>
</g>
<g>
</g>
<g>
</g>
<g>
</g>
<g>
</g>
<g>
</g>
<g>
</g>
<g>
</g>
</svg>
